<svg width="32" height="32" viewBox="0 0 32 32" fill="none" xmlns="http://www.w3.org/2000/svg">
    <path d="M11.3685 5.8371H6.68296C6.45614 5.8371 6.30511 5.98716 6.30511 6.21206V10.8245C6.30511 11.0496 6.45633 11.1995 6.68296 11.1995H11.3308C11.5576 11.1995 11.7086 11.0494 11.7086 10.8245V6.21206C11.7463 5.98697 11.5574 5.8371 11.3685 5.8371ZM10.9906 10.4495H7.06077V6.58705H10.9529V10.4495H10.9906Z" fill="#B8C1CC"/>
    <path d="M11.3685 13.2997H6.68296C6.45614 13.2997 6.30511 13.4498 6.30511 13.6747V18.2871C6.30511 18.5122 6.45633 18.6621 6.68296 18.6621H11.3308C11.5576 18.6621 11.7086 18.512 11.7086 18.2871V13.6747C11.7463 13.4872 11.5574 13.2997 11.3685 13.2997ZM10.9906 17.9496H7.06077V14.0496H10.9529V17.9496H10.9906Z" fill="#B8C1CC"/>
    <path d="M11.3685 20.7997H6.68296C6.45614 20.7997 6.30511 20.9497 6.30511 21.1746V25.7871C6.30511 26.0122 6.45633 26.162 6.68296 26.162H11.3308C11.5576 26.162 11.7086 26.012 11.7086 25.7871V21.1746C11.7463 20.9872 11.5574 20.7997 11.3685 20.7997ZM10.9906 25.4121H7.06077V21.5496H10.9529V25.4121H10.9906Z" fill="#B8C1CC"/>
    <path d="M8.1938 9.66197C8.2694 9.737 8.38272 9.77442 8.45833 9.77442C8.57165 9.77442 8.64725 9.737 8.72286 9.66197L10.5367 7.86197C10.6879 7.7119 10.6879 7.487 10.5367 7.33691C10.3855 7.18685 10.1588 7.18685 10.0076 7.33691L8.45832 8.87439L8.04258 8.46182C7.89136 8.31175 7.66474 8.31175 7.5135 8.46182C7.36228 8.61188 7.36228 8.83678 7.5135 8.98687L8.1938 9.66197Z" fill="#B8C1CC"/>
    <path d="M8.1938 17.162C8.2694 17.237 8.34502 17.2744 8.45833 17.2744C8.57165 17.2744 8.64725 17.237 8.72286 17.162L10.5367 15.362C10.6879 15.2119 10.6879 14.987 10.5367 14.8369C10.3855 14.6868 10.1588 14.6868 10.0076 14.8369L8.45832 16.3744L8.04258 15.9618C7.89136 15.8118 7.66474 15.8118 7.5135 15.9618C7.36228 16.1119 7.36228 16.3368 7.5135 16.4869L8.1938 17.162Z" fill="#B8C1CC"/>
    <path d="M8.1938 24.6619C8.2694 24.7369 8.38272 24.7744 8.45833 24.7744C8.57165 24.7744 8.64725 24.7369 8.72286 24.6619L10.5367 22.8619C10.6879 22.7118 10.6879 22.4869 10.5367 22.3369C10.3855 22.1868 10.1588 22.1868 10.0076 22.3369L8.45832 23.8743L8.04258 23.4618C7.89136 23.3117 7.66474 23.3117 7.5135 23.4618C7.36228 23.6118 7.36228 23.8367 7.5135 23.9868L8.1938 24.6619Z" fill="#B8C1CC"/>
    <path d="M27.6547 17.4621H23.4225C23.1957 17.4621 23.0446 17.6122 23.0446 17.8371C22.2889 17.5746 22.5535 17.7246 22.1754 17.5371L22.1756 9.88733C22.1756 9.77488 22.1379 9.69985 22.0623 9.62481L16.5076 4.11245C16.432 4.03761 16.3187 4 16.2431 4H4.37784C4.15102 4 4 4.15006 4 4.37496V27.625C4 27.8501 4.15122 28 4.37784 28H21.7601C21.987 28 22.138 27.8499 22.138 27.625V25.4501H23.0072C23.0449 25.6376 23.1961 25.75 23.385 25.75H27.6173C27.8441 25.75 27.9952 25.6 27.9952 25.3751V17.8378C28.0329 17.6129 27.8439 17.4628 27.655 17.4628L27.6547 17.4621ZM23.0446 18.587V24.6997H15.7519C15.2228 24.6997 15.1852 24.2871 15.1852 24.1746C15.1852 24.0245 15.2229 23.9121 15.2985 23.7996C15.3741 23.6872 15.5253 23.6496 15.6763 23.6496C15.9031 23.6496 16.0542 23.4995 16.0542 23.2746C16.0542 23.0495 15.903 22.8996 15.6763 22.8996H15.1472C14.6182 22.8996 14.5805 22.4871 14.5805 22.3746C14.5805 22.1871 14.6938 21.8495 15.1096 21.8495C15.2985 21.8495 15.4497 21.6995 15.4874 21.512C15.4874 21.3245 15.3741 21.137 15.1852 21.0994H14.9206C14.316 21.1368 14.0893 21.0244 14.0138 20.7245C13.9761 20.5744 14.0138 20.3869 14.0894 20.2745C14.2027 20.162 14.3539 20.087 14.5051 20.087C14.7319 20.087 14.8829 19.9369 14.8829 19.712C14.8829 19.4869 14.7317 19.337 14.5051 19.337H13.9384C13.5226 19.337 13.4093 18.9995 13.4093 18.812C13.4093 18.737 13.447 18.2869 13.976 18.2869H16.6211C17.2258 18.2869 17.717 18.0244 17.9438 17.6119C18.1327 17.1993 18.2083 16.4868 17.3391 15.3619C17.0369 14.9869 16.9234 14.4993 17.0746 14.1244C17.2635 13.5993 17.7926 13.3744 18.1327 13.3368C18.095 16.0742 20.8157 17.6867 22.0248 18.2494C22.0624 18.3246 23.0448 18.5871 23.0448 18.5871L23.0446 18.587ZM16.6207 5.27449L20.8907 9.51195H16.6207V5.27449ZM21.4197 27.2493H4.79331V4.74934H15.865V9.88687C15.865 10.112 16.0162 10.2618 16.2429 10.2618H21.4198V17.0868C20.2861 16.3743 18.888 15.0994 18.9258 13.3368C18.9258 13.1493 18.8502 12.9242 18.6989 12.8117C18.5477 12.6617 18.3211 12.6243 18.1322 12.6243C17.263 12.7367 16.6585 13.2243 16.394 13.8992C16.1672 14.5367 16.3184 15.2492 16.7718 15.8492C17.263 16.4493 17.4521 17.0117 17.3009 17.2743C17.1876 17.4994 16.8098 17.5368 16.6585 17.5368H14.0134C13.1442 17.5368 12.6908 18.1743 12.6908 18.8117C12.6908 19.2617 12.9553 19.7492 13.4087 19.9742C13.2575 20.2742 13.2198 20.5743 13.2954 20.9117C13.4087 21.3617 13.7112 21.6242 14.0134 21.7366C13.9001 21.9241 13.8622 22.1492 13.8622 22.3741C13.8622 22.8241 14.1267 23.3115 14.5802 23.5366C14.4669 23.7241 14.429 23.9492 14.429 24.1741C14.429 24.8116 14.8824 25.4491 15.7516 25.4491H21.4197L21.4197 27.2493ZM27.2768 25.0367H23.8004V18.2117H27.2768V25.0367Z" fill="#B8C1CC"/>
    </svg>
    